<mxfile host="app.diagrams.net" modified="2021-01-26T12:58:41.029Z" agent="5.0 (Windows)" etag="4xCHzsS7VY4ldxVlsiZ4" version="14.2.7" type="github">
  <diagram id="uiEBSYrxY0nAEewbNJNb" name="Page-1">
    <mxGraphModel dx="876" dy="835" grid="1" gridSize="10" guides="1" tooltips="1" connect="1" arrows="1" fold="1" page="1" pageScale="1" pageWidth="827" pageHeight="1169" math="0" shadow="0">
      <root>
        <mxCell id="0" />
        <mxCell id="1" parent="0" />
        <mxCell id="rLT2vAHLestYcVHWxPt3-11" value="" style="rounded=0;whiteSpace=wrap;html=1;fillColor=#f5f5f5;strokeColor=#666666;fontColor=#333333;" parent="1" vertex="1">
          <mxGeometry x="160" y="220" width="680" height="520" as="geometry" />
        </mxCell>
        <mxCell id="rLT2vAHLestYcVHWxPt3-1" value="" style="rounded=0;whiteSpace=wrap;html=1;fillColor=#d5e8d4;strokeColor=#82b366;" parent="1" vertex="1">
          <mxGeometry x="214" y="250" width="576" height="420" as="geometry" />
        </mxCell>
        <mxCell id="rLT2vAHLestYcVHWxPt3-3" value="&lt;div&gt;Development tools&lt;/div&gt;&lt;div&gt;(javac, java etc)&lt;br&gt;&lt;/div&gt;" style="rounded=0;whiteSpace=wrap;html=1;fillColor=#ffe6cc;strokeColor=#d79b00;" parent="1" vertex="1">
          <mxGeometry x="670" y="370" width="100" height="280" as="geometry" />
        </mxCell>
        <mxCell id="rLT2vAHLestYcVHWxPt3-10" value="&lt;h1&gt;JDK(Java Development Kit)&lt;/h1&gt;&lt;div&gt;&lt;br&gt;&lt;/div&gt;&lt;div&gt;자바 프로그래밍시 플요한 컴파일러 등을 포함&lt;br&gt;&lt;/div&gt;" style="text;html=1;strokeColor=none;fillColor=none;spacing=5;spacingTop=-20;whiteSpace=wrap;overflow=hidden;rounded=0;" parent="1" vertex="1">
          <mxGeometry x="214" y="250" width="336" height="120" as="geometry" />
        </mxCell>
        <mxCell id="rLT2vAHLestYcVHWxPt3-12" value="" style="group" parent="1" vertex="1" connectable="0">
          <mxGeometry x="290" y="380" width="310" height="280" as="geometry" />
        </mxCell>
        <mxCell id="rLT2vAHLestYcVHWxPt3-14" value="" style="group" parent="rLT2vAHLestYcVHWxPt3-12" vertex="1" connectable="0">
          <mxGeometry x="-60" y="-10" width="310" height="280" as="geometry" />
        </mxCell>
        <mxCell id="rLT2vAHLestYcVHWxPt3-2" value="" style="rounded=0;whiteSpace=wrap;html=1;fillColor=#ffe6cc;strokeColor=#d79b00;" parent="rLT2vAHLestYcVHWxPt3-14" vertex="1">
          <mxGeometry width="310" height="280" as="geometry" />
        </mxCell>
        <mxCell id="rLT2vAHLestYcVHWxPt3-5" value="files" style="rounded=0;whiteSpace=wrap;html=1;" parent="rLT2vAHLestYcVHWxPt3-14" vertex="1">
          <mxGeometry x="210" y="200" width="90" height="80" as="geometry" />
        </mxCell>
        <mxCell id="rLT2vAHLestYcVHWxPt3-6" value="libraries" style="rounded=0;whiteSpace=wrap;html=1;" parent="rLT2vAHLestYcVHWxPt3-14" vertex="1">
          <mxGeometry x="210" y="100" width="90" height="80" as="geometry" />
        </mxCell>
        <mxCell id="rLT2vAHLestYcVHWxPt3-8" value="&lt;h1 style=&quot;font-size: 20px&quot;&gt;JRE&lt;font style=&quot;font-size: 20px&quot;&gt;(Java Runtime Environment)&lt;/font&gt;&lt;/h1&gt;&lt;div&gt;컴파일된 자바 프로그램을 실행시킬 수 있는 자바 환경&lt;br&gt;&lt;/div&gt;" style="text;html=1;strokeColor=none;fillColor=none;spacing=5;spacingTop=-20;whiteSpace=wrap;overflow=hidden;rounded=0;" parent="rLT2vAHLestYcVHWxPt3-14" vertex="1">
          <mxGeometry width="300" height="100" as="geometry" />
        </mxCell>
        <mxCell id="rLT2vAHLestYcVHWxPt3-4" value="&lt;div&gt;&lt;font style=&quot;font-size: 28px&quot;&gt;JVM&lt;/font&gt;&lt;/div&gt;&lt;div&gt;&lt;font style=&quot;font-size: 28px&quot;&gt;&lt;font style=&quot;font-size: 15px&quot;&gt;Java Virtual Machine&lt;/font&gt;&lt;br&gt;&lt;/font&gt;&lt;/div&gt;&lt;div&gt;&lt;font style=&quot;font-size: 28px&quot;&gt;&lt;font style=&quot;font-size: 18px&quot;&gt;자바 바이너리 파일 실행&lt;/font&gt;&lt;br&gt;&lt;/font&gt;&lt;/div&gt;&lt;div&gt;&lt;font style=&quot;font-size: 28px&quot;&gt;&lt;br&gt;&lt;/font&gt;&lt;/div&gt;" style="ellipse;whiteSpace=wrap;html=1;" parent="rLT2vAHLestYcVHWxPt3-14" vertex="1">
          <mxGeometry y="90" width="210" height="190" as="geometry" />
        </mxCell>
      </root>
    </mxGraphModel>
  </diagram>
</mxfile>
